<svg width="24" height="24" viewBox="0 0 24 24" fill="none" xmlns="http://www.w3.org/2000/svg">
<path d="M22.1 2.2C21.8 2 21.4 2 21.1 2.1L15.4 4.9L9.6 2.1C9.5 2 9.3 2 9.2 2C9.1 2 9 2 8.9 2H8.8C8.8 2 8.8 2 8.7 2L2.5 5C2.2 5.3 2 5.6 2 6V21C2 21.3 2.2 21.7 2.5 21.8C2.6 22 2.8 22 3 22C3.1 22 3.3 22 3.4 21.9L9.1 19.1L14.8 21.9C14.9 22 15.1 22 15.2 22C15.3 22 15.5 22 15.6 21.9L21.8 18.9C22.1 18.7 22.4 18.4 22.4 18V3C22.5 2.7 22.3 2.3 22.1 2.2ZM8.2 17.4L4 19.4V6.6L8.2 4.6V17.4ZM14.3 19.4L10.1 17.4V4.6L14.3 6.6V19.4ZM20.5 17.4L16.3 19.4V6.6L20.5 4.6V17.4Z" fill="#C6CDD2"/>
</svg>
