<svg width="24" height="24" viewBox="0 0 24 24" fill="none" xmlns="http://www.w3.org/2000/svg">
<path d="M12.1 3.58051V1.88051C12.1 1.58051 11.7 1.38051 11.5 1.58051L7.4 4.28051C7.2 4.48051 7.2 4.78051 7.4 4.98051L11.5 7.68051C11.8 7.88051 12.1 7.68051 12.1 7.38051V5.58051C16.3 5.58051 19.7 8.98051 19.7 13.1805C19.7 17.3805 16.3 20.7805 12.1 20.7805C7.9 20.7805 4.5 17.3805 4.5 13.1805C4.5 12.5805 4.1 12.1805 3.5 12.1805C2.9 12.1805 2.5 12.5805 2.5 13.1805C2.5 18.4805 6.8 22.7805 12.1 22.7805C17.4 22.7805 21.7 18.4805 21.7 13.1805C21.7 7.88051 17.4 3.58051 12.1 3.58051ZM12.9 16.0805C13.3 16.3805 13.7 16.4805 14.3 16.4805C14.8 16.4805 15.3 16.3805 15.7 16.0805C16.1 15.7805 16.4 15.4805 16.6 14.9805C16.8 14.4805 16.9 13.8805 16.9 13.1805C16.9 12.4805 16.8 11.8805 16.6 11.3805C16.4 10.8805 16.1 10.4805 15.7 10.2805C15.3 9.98051 14.9 9.88051 14.3 9.88051C13.8 9.88051 13.3 9.98051 12.9 10.2805C12.5 10.5805 12.2 10.8805 12 11.3805C11.8 11.8805 11.7 12.4805 11.7 13.1805C11.7 13.8805 11.8 14.4805 12 14.9805C12.2 15.3805 12.5 15.7805 12.9 16.0805ZM13.4 11.5805C13.6 11.1805 13.9 11.0805 14.3 11.0805C14.5 11.0805 14.8 11.1805 14.9 11.2805C15.1 11.4805 15.2 11.6805 15.3 11.9805C15.4 12.2805 15.4 12.6805 15.4 13.1805C15.4 13.8805 15.3 14.4805 15.1 14.7805C14.9 15.1805 14.6 15.2805 14.2 15.2805C14 15.2805 13.7 15.1805 13.6 15.0805C13.4 14.8805 13.3 14.6805 13.2 14.3805C13.1 14.0805 13.1 13.6805 13.1 13.1805C13 12.4805 13.1 11.8805 13.4 11.5805ZM10.2 16.2805V9.98051H9L7.4 10.9805V12.1805L8.8 11.2805V16.3805H10.2V16.2805Z" fill="white"/>
</svg>
