<?xml version="1.0" encoding="UTF-8"?>
<svg width="18" height="21" viewBox="0 0 18 21" fill="none" xmlns="http://www.w3.org/2000/svg">
  <path d="M16.7 2.1H14.1V1C14.1 0.4 13.7 0 13.1 0C12.5 0 12.1 0.4 12.1 1V2.1H5.9V1C5.9 0.4 5.5 0 4.9 0C4.3 0 3.9 0.4 3.9 1V2.1H1.3C0.6 2.1 0 2.7 0 3.4V18.8C0 19.5 0.6 20.1 1.3 20.1H16.7C17.4 20.1 18 19.5 18 18.8V3.4C18 2.7 17.4 2.1 16.7 2.1ZM3.9 4.1V5C3.9 5.6 4.3 6 4.9 6C5.5 6 5.9 5.6 5.9 5V4.1H12.1V5C12.1 5.6 12.5 6 13.1 6C13.7 6 14.1 5.6 14.1 5V4.1H16V7.1H2V4.1H3.9ZM2 18.1V9.1H16V18.1H2Z" fill="#C6CDD2" />
</svg>
