<svg width="18" height="18" viewBox="0 0 18 18" fill="none" xmlns="http://www.w3.org/2000/svg">
<path fill-rule="evenodd" clip-rule="evenodd" d="M0 9C0 4.0374 4.0374 0 9 0C13.9626 0 18 4.0374 18 9C18 13.9626 13.9626 18 9 18C4.0374 18 0 13.9626 0 9ZM1.8 9C1.8 12.9699 5.0301 16.2 9 16.2C12.9699 16.2 16.2 12.9699 16.2 9C16.2 5.0301 12.9699 1.8 9 1.8C5.0301 1.8 1.8 5.0301 1.8 9ZM8.52632 4.73685C9.04953 4.73685 9.47369 5.161 9.47369 5.68422V8.52632H12.3158C12.839 8.52632 13.2632 8.95047 13.2632 9.47369C13.2632 9.99691 12.839 10.4211 12.3158 10.4211H7.57895V5.68422C7.57895 5.161 8.0031 4.73685 8.52632 4.73685Z" fill="#C6CDD2"/>
</svg>
