<svg width="14" height="14" viewBox="0 0 14 14" fill="none" xmlns="http://www.w3.org/2000/svg">
<path d="M1.76629 0.290752L7 5.52428L12.2122 0.312289C12.3035 0.215067 12.4136 0.137293 12.5357 0.083631C12.6578 0.0299686 12.7895 0.00152305 12.9229 0C13.2085 0 13.4825 0.113454 13.6844 0.315404C13.8864 0.517354 13.9998 0.791257 13.9998 1.07686C14.0023 1.20888 13.9778 1.34003 13.9278 1.46224C13.8778 1.58446 13.8034 1.69517 13.7091 1.78758L8.44304 6.99957L13.7091 12.2654C13.8866 12.439 13.9906 12.6742 13.9998 12.9223C13.9998 13.2079 13.8864 13.4818 13.6844 13.6837C13.4825 13.8857 13.2085 13.9991 12.9229 13.9991C12.7857 14.0048 12.6488 13.9819 12.5208 13.9319C12.3929 13.8818 12.2768 13.8057 12.1799 13.7084L7 8.47487L1.77705 13.6976C1.68606 13.7916 1.57736 13.8666 1.45722 13.9184C1.33708 13.9701 1.20788 13.9976 1.07707 13.9991C0.791461 13.9991 0.517548 13.8857 0.315591 13.6837C0.113634 13.4818 0.000175217 13.2079 0.000175217 12.9223C-0.00233556 12.7903 0.0221606 12.6591 0.0721604 12.5369C0.12216 12.4147 0.196609 12.304 0.290937 12.2116L5.55696 6.99957L0.290937 1.73374C0.113448 1.56011 0.0093715 1.32498 0.000175217 1.07686C0.000175217 0.791257 0.113634 0.517354 0.315591 0.315404C0.517548 0.113454 0.791461 0 1.07707 0C1.33553 0.00323057 1.58321 0.107686 1.76629 0.290752Z" fill="#C6CDD2"/>
</svg>
