<svg width="24" height="24" viewBox="0 0 24 24" fill="none" xmlns="http://www.w3.org/2000/svg">
<path fill-rule="evenodd" clip-rule="evenodd" d="M19 12C19 15.866 15.866 19 12 19C8.13401 19 5 15.866 5 12C5 8.13401 8.13401 5 12 5C15.866 5 19 8.13401 19 12ZM21 12C21 16.9706 16.9706 21 12 21C7.02944 21 3 16.9706 3 12C3 7.02944 7.02944 3 12 3C16.9706 3 21 7.02944 21 12ZM10.75 15.0311L15.25 12.433C15.5833 12.2406 15.5833 11.7594 15.25 11.567L10.75 8.96891C10.4167 8.77646 10 9.01702 10 9.40192L10 14.5981C10 14.983 10.4167 15.2235 10.75 15.0311Z" fill="#C6CDD2"/>
</svg>
