<svg width="24" height="24" viewBox="0 0 24 24" fill="none" xmlns="http://www.w3.org/2000/svg">
<path d="M20.7 12.2805C20.1 12.2805 19.7 12.6805 19.7 13.2805C19.7 17.4805 16.3 20.8805 12.1 20.8805C7.9 20.8805 4.5 17.4805 4.5 13.2805C4.5 9.08051 7.9 5.68051 12.1 5.68051V7.38051C12.1 7.68051 12.5 7.88051 12.7 7.68051L16.8 4.98051C17 4.78051 17 4.48051 16.8 4.28051L12.7 1.58051C12.4 1.38051 12.1 1.58051 12.1 1.88051V3.58051C6.8 3.68051 2.5 8.08051 2.5 13.2805C2.5 18.4805 6.8 22.8805 12.1 22.8805C17.4 22.8805 21.7 18.5805 21.7 13.2805C21.7 12.7805 21.3 12.2805 20.7 12.2805ZM10.2 16.3805V10.0805H9L7.4 11.0805V12.2805L8.8 11.3805V16.4805H10.2V16.3805ZM15.6 10.3805C15.2 10.0805 14.8 9.98051 14.2 9.98051C13.7 9.98051 13.2 10.0805 12.8 10.3805C12.4 10.6805 12.2 10.9805 12 11.4805C11.8 11.9805 11.7 12.5805 11.7 13.2805C11.7 13.9805 11.8 14.5805 12 15.0805C12.2 15.5805 12.5 15.9805 12.9 16.1805C13.3 16.4805 13.7 16.5805 14.3 16.5805C14.8 16.5805 15.3 16.4805 15.7 16.1805C16.1 15.8805 16.4 15.5805 16.6 15.0805C16.8 14.5805 16.9 13.9805 16.9 13.2805C16.9 12.5805 16.8 11.9805 16.6 11.4805C16.4 10.9805 16 10.6805 15.6 10.3805ZM15.1 14.8805C14.9 15.2805 14.6 15.3805 14.2 15.3805C14 15.3805 13.7 15.2805 13.6 15.1805C13.4 14.9805 13.3 14.7805 13.2 14.4805C13.1 14.1805 13.1 13.7805 13.1 13.2805C13.1 12.5805 13.2 11.9805 13.4 11.6805C13.6 11.3805 13.9 11.1805 14.3 11.1805C14.5 11.1805 14.8 11.2805 14.9 11.3805C15.1 11.5805 15.2 11.7805 15.3 12.0805C15.4 12.3805 15.4 12.7805 15.4 13.2805C15.4 13.9805 15.3 14.5805 15.1 14.8805Z" fill="white"/>
</svg>
