<svg id="Layer_2" data-name="Layer 2" xmlns="http://www.w3.org/2000/svg" viewBox="0 0 540.1 537.93">
  <defs>
    <style>
      .cls-1 {
        fill: #fff;
      }
    </style>
  </defs>
  <g id="LOGO">
    <g>
      <g>
        <path class="cls-1" d="M70.62,55.99h20.23v74.15h27.86v20.37h-48.09V55.99Z"/>
        <path class="cls-1" d="M131.33,119.7c0-9.55,3.05-17.35,9.14-23.4,6.09-6.05,13.92-9.07,23.47-9.07,8.88,0,16.33,3.08,22.35,9.25,6.02,6.17,9.03,13.81,9.03,22.93s-3.01,17.04-9.03,23.18c-6.02,6.14-13.57,9.21-22.64,9.21-10.22,0-18.17-3.25-23.83-9.75-5.66-6.5-8.49-13.95-8.49-22.35Zm45.86,0c0-4.18-1.37-7.82-4.1-10.94-2.74-3.12-5.93-4.68-9.57-4.68s-7.06,1.46-9.79,4.39c-2.74,2.93-4.1,6.43-4.1,10.51,0,4.46,1.36,8.26,4.07,11.37,2.71,3.12,5.99,4.68,9.83,4.68s6.84-1.52,9.57-4.57c2.74-3.05,4.1-6.63,4.1-10.76Z"/>
        <path class="cls-1" d="M211.9,88.74h18.72v29.66c0,4.27,1.09,7.84,3.27,10.69,2.18,2.86,4.87,4.28,8.07,4.28,3.4,0,6.26-1.38,8.58-4.14,2.32-2.76,3.48-6.23,3.48-10.4v-30.09h18.72v36c0,7.63-2.91,14.03-8.74,19.19-5.82,5.16-13.08,7.74-21.75,7.74-9.2,0-16.56-2.59-22.08-7.78-5.51-5.18-8.27-12.07-8.27-20.66v-34.48Z"/>
        <path class="cls-1" d="M332.07,54.4h18.57v96.11h-18.14v-10.58h-.29c-5.37,7.73-12.03,11.59-19.98,11.59-7.09,0-13.14-3.1-18.15-9.29-5.01-6.19-7.51-13.75-7.51-22.68s2.59-16.55,7.76-22.86c5.17-6.31,11.38-9.47,18.62-9.47,4.12,0,7.59,.76,10.42,2.27,2.83,1.51,5.73,3.97,8.7,7.38V54.4Zm-13.57,51.11c-3.02,0-5.84,1.39-8.47,4.18-2.63,2.78-3.95,6.55-3.95,11.3,0,3.79,1.16,7.03,3.48,9.72,2.32,2.69,5.13,4.03,8.44,4.03,3.92,0,7.2-1.45,9.84-4.36,2.63-2.9,3.95-6.52,3.95-10.83,0-3.74-1.28-7.02-3.84-9.83-2.56-2.81-5.71-4.21-9.44-4.21Z"/>
        <path class="cls-1" d="M427.62,123.95h-44.13c.24,3.98,1.55,7.22,3.92,9.72,2.38,2.5,5.15,3.74,8.32,3.74,5.66,0,10.1-2.57,13.32-7.7l16.92,5.62c-6.29,10.99-16.05,16.49-29.3,16.49-9.74,0-17.49-2.95-23.25-8.85-5.76-5.9-8.64-13.85-8.64-23.83,0-8.97,3.04-16.51,9.11-22.6,6.07-6.09,13.55-9.14,22.42-9.14s16.38,3.2,22.35,9.61c5.98,6.41,8.96,14.41,8.96,24.01v2.95Zm-43.99-12.38h24.91c-1.73-7.73-5.69-11.59-11.88-11.59-3.55,0-6.49,1.01-8.82,3.02-2.33,2.02-3.73,4.87-4.21,8.57Z"/>
        <path class="cls-1" d="M458.88,88.6v9.14h.29c1.82-3.07,3.95-5.51,6.37-7.31,2.42-1.8,4.67-2.7,6.73-2.7,1.25,0,2.38,.1,3.38,.29v20.16c-1.54-.29-3.05-.43-4.54-.43-3.79,0-6.73,1.33-8.82,4-2.09,2.66-3.13,6.4-3.13,11.19v27.57h-18.72v-61.91h18.43Z"/>
      </g>
      <g>
        <path class="cls-1" d="M70.62,222.4h63.57v20.09h-21.67v74.44h-20.37v-74.44h-21.53v-20.09Z"/>
        <path class="cls-1" d="M149.04,220.81h18.72v41.39c3.36-2.88,6.48-4.97,9.36-6.26s6.21-1.94,10.01-1.94c6.48,0,11.55,2.34,15.23,7.02,3.67,4.68,5.51,11.17,5.51,19.47v36.43h-18.57v-33.19c0-3.98-1.02-7.33-3.06-10.04-2.04-2.71-4.55-4.07-7.52-4.07-3.79,0-6.56,1.56-8.32,4.68-1.75,3.12-2.63,7.99-2.63,14.61v28h-18.72v-96.11Z"/>
        <path class="cls-1" d="M267.69,316.92v-10.58h-.29c-2.88,4.13-5.78,7.12-8.71,8.96-2.93,1.85-6.55,2.77-10.87,2.77-7.25,0-13.42-3.12-18.5-9.36-5.09-6.24-7.63-13.82-7.63-22.75s2.71-16.4,8.13-22.71c5.42-6.31,11.85-9.47,19.29-9.47,3.55,0,6.74,.79,9.57,2.38,2.83,1.58,5.83,4.1,9,7.56v-8.57h18.43v61.77h-18.43Zm-13.53-44.71c-3.65,0-6.69,1.45-9.14,4.36-2.45,2.9-3.67,6.56-3.67,10.98,0,4.13,1.16,7.45,3.49,9.97,2.33,2.52,5.39,3.78,9.18,3.78s6.77-1.45,9.36-4.36c2.59-2.9,3.89-6.42,3.89-10.55,0-3.84-1.3-7.16-3.89-9.97-2.59-2.81-5.66-4.21-9.21-4.21Z"/>
        <path class="cls-1" d="M325.02,255.01v7.34c6.29-5.9,12.89-8.85,19.8-8.85,5.9,0,10.79,2.42,14.65,7.27,3.86,4.85,5.8,11.04,5.8,18.57v37.58h-18.72v-34.63c0-3.55-.97-6.55-2.92-9-1.94-2.45-4.31-3.67-7.09-3.67-3.36,0-6.12,1.55-8.28,4.64-2.16,3.1-3.24,7.09-3.24,11.99v30.67h-18.43v-61.91h18.43Z"/>
      </g>
      <g>
        <path class="cls-1" d="M70.62,395.42h18.13l15.23,64.43,15.88-64.43h12.96l15.65,64.72,15.52-64.72h18.14l-22.89,94.52h-19.15l-13.86-57.95-13.88,57.95h-19.08l-22.65-94.52Z"/>
        <path class="cls-1" d="M192.81,459.13c0-9.55,3.05-17.35,9.14-23.4,6.09-6.05,13.92-9.07,23.47-9.07,8.88,0,16.33,3.08,22.35,9.25,6.02,6.17,9.03,13.81,9.03,22.93s-3.01,17.04-9.03,23.18c-6.02,6.14-13.57,9.21-22.64,9.21-10.22,0-18.17-3.25-23.83-9.75-5.66-6.5-8.49-13.95-8.49-22.35Zm45.86,0c0-4.18-1.37-7.82-4.1-10.94-2.74-3.12-5.93-4.68-9.57-4.68s-7.06,1.46-9.79,4.39c-2.74,2.93-4.1,6.43-4.1,10.51,0,4.46,1.36,8.26,4.07,11.37,2.71,3.12,5.99,4.68,9.83,4.68s6.84-1.52,9.57-4.57c2.74-3.05,4.1-6.63,4.1-10.76Z"/>
        <path class="cls-1" d="M291.02,428.04v9.14h.29c1.82-3.07,3.95-5.51,6.37-7.31,2.42-1.8,4.67-2.7,6.73-2.7,1.25,0,2.38,.1,3.38,.29v20.16c-1.54-.29-3.05-.43-4.54-.43-3.79,0-6.73,1.33-8.82,4s-3.13,6.4-3.13,11.19v27.57h-18.72v-61.91h18.43Z"/>
        <path class="cls-1" d="M361.44,393.84h18.57v96.11h-18.14v-10.58h-.29c-5.37,7.73-12.03,11.59-19.98,11.59-7.09,0-13.14-3.1-18.15-9.29-5.01-6.19-7.51-13.75-7.51-22.68s2.59-16.55,7.76-22.86c5.18-6.31,11.38-9.47,18.62-9.47,4.12,0,7.59,.76,10.42,2.27,2.83,1.51,5.73,3.97,8.7,7.38v-42.47Zm-13.57,51.11c-3.02,0-5.84,1.39-8.47,4.18-2.63,2.78-3.95,6.55-3.95,11.3,0,3.79,1.16,7.03,3.48,9.72,2.32,2.69,5.13,4.03,8.44,4.03,3.92,0,7.2-1.45,9.84-4.36,2.63-2.9,3.95-6.52,3.95-10.83,0-3.74-1.28-7.02-3.84-9.83-2.56-2.81-5.71-4.21-9.44-4.21Z"/>
        <path class="cls-1" d="M444.9,436.75l-12.53,7.63c-3.62-3.65-6.99-5.47-10.12-5.47-1.54,0-2.87,.43-3.98,1.29s-1.66,1.92-1.66,3.16c0,2.01,.64,3.47,1.92,4.38s4.69,2.32,10.22,4.22c5.53,1.9,9.9,4.34,13.09,7.32,3.19,2.98,4.79,7.1,4.79,12.38s-2.4,9.9-7.2,13.71c-4.8,3.82-10.56,5.72-17.28,5.72-4.56,0-9.11-1.27-13.64-3.82-4.54-2.54-8.39-6.43-11.56-11.66l14.9-6.77c3.36,5.81,6.84,8.71,10.44,8.71,1.63,0,3.1-.52,4.39-1.58,1.3-1.05,1.94-2.25,1.94-3.59,0-1.72-.75-3.03-2.23-3.92-1.49-.89-2.59-1.34-3.31-1.34-.29-.34-2.02-1.01-5.18-2.02-12.38-4.04-18.57-10.6-18.57-19.67,0-5.47,2.22-9.95,6.66-13.43,4.44-3.48,10.23-5.22,17.39-5.22,7.92,0,15.09,3.31,21.53,9.94Z"/>
      </g>
      <rect class="cls-1" x="0" y="0" width="540.1" height="25.1"/>
      <rect class="cls-1" x="-243.86" y="243.86" width="512.83" height="25.1" transform="translate(268.97 243.86) rotate(90)"/>
      <rect class="cls-1" x="271.14" y="243.86" width="512.83" height="25.1" transform="translate(783.97 -271.14) rotate(90)"/>
      <rect class="cls-1" x="0" y="170.94" width="540.1" height="25.1"/>
      <rect class="cls-1" x="0" y="341.89" width="540.1" height="25.1"/>
      <rect class="cls-1" x="0" y="512.83" width="540.1" height="25.1"/>
    </g>
  </g>
</svg>